<svg height="128" xmlns="http://www.w3.org/2000/svg" viewBox="0 0 256 256" y="0px" x="0px" xml:space="preserve" version="1.1" style="font-size: 128px;" width="128" xmlns:xlink="http://www.w3.org/1999/xlink">
    <g transform="matrix(1,0,0,1,-3.6e-07,-3.6e-07)">
        <g transform="matrix(0.27586207,0,0,0.27586207,-13.241379,-13.241379)">
            <g id="设计">
                <g>
                    <g>
                        <g>
                            <path style="fill:#5064AA;" d="M512,256c-8.836,0-16-7.163-16-16V64c0-8.837,7.164-16,16-16s16,7.163,16,16v176
					C528,248.837,520.836,256,512,256z"></path>
                            <path style="fill:#50BEC8;" d="M512,976c-8.836,0-16-7.163-16-16V784c0-8.837,7.164-16,16-16s16,7.163,16,16v176
					C528,968.837,520.836,976,512,976z"></path>
                        </g>
                        <g>
                            <path style="fill:#5064AA;" d="M960,528H784c-8.836,0-16-7.163-16-16s7.164-16,16-16h176c8.836,0,16,7.163,16,16
					S968.836,528,960,528z"></path>
                            <path style="fill:#5064AA;" d="M240,528H64c-8.836,0-16-7.163-16-16s7.164-16,16-16h176c8.836,0,16,7.163,16,16
					S248.836,528,240,528z"></path>
                        </g>
                    </g>
                </g>
                <g>
                    <g>
                        <g>
                            <path style="fill:#5064AA;" d="M376.015,292.444c-5.53,0-10.908-2.87-13.872-8.003l-88-152.421
					c-4.418-7.652-1.796-17.438,5.856-21.856c7.653-4.419,17.438-1.796,21.856,5.856l88,152.421
					c4.418,7.652,1.796,17.438-5.856,21.856C381.48,291.752,378.729,292.444,376.015,292.444z"></path>
                            <path style="fill:#50BEC8;" d="M736.015,915.982c-5.53,0-10.908-2.87-13.872-8.003l-88-152.421
					c-4.418-7.652-1.796-17.438,5.856-21.856c7.654-4.418,17.438-1.795,21.856,5.856l88,152.421
					c4.418,7.652,1.796,17.438-5.856,21.856C741.48,915.29,738.729,915.982,736.015,915.982z"></path>
                        </g>
                        <g>
                            <path style="fill:#5064AA;" d="M747.574,392.003c-5.53,0-10.908-2.87-13.872-8.003c-4.418-7.652-1.796-17.438,5.856-21.856
					l152.42-88c7.653-4.419,17.438-1.796,21.856,5.856c4.418,7.652,1.796,17.438-5.856,21.856l-152.42,88
					C753.04,391.311,750.288,392.003,747.574,392.003z"></path>
                            <path style="fill:#5064AA;" d="M124.036,752.003c-5.53,0-10.908-2.87-13.872-8.003c-4.418-7.652-1.796-17.438,5.856-21.856
					l152.42-88c7.653-4.418,17.438-1.795,21.856,5.856c4.418,7.652,1.796,17.438-5.856,21.856l-152.42,88
					C129.501,751.311,126.75,752.003,124.036,752.003z"></path>
                        </g>
                    </g>
                </g>
                <g>
                    <g>
                        <g>
                            <path style="fill:#5064AA;" d="M276.426,392.003c-2.714,0-5.465-0.691-7.985-2.146l-152.42-88
					c-7.653-4.418-10.275-14.204-5.856-21.856s14.202-10.274,21.856-5.856l152.42,88c7.653,4.418,10.275,14.204,5.856,21.856
					C287.334,389.133,281.956,392.003,276.426,392.003z"></path>
                            <path style="fill:#50BEC8;" d="M899.964,752.003c-2.714,0-5.465-0.691-7.985-2.146l-152.42-88
					c-7.653-4.418-10.275-14.204-5.856-21.856c4.418-7.652,14.204-10.274,21.856-5.856l152.42,88
					c7.653,4.418,10.275,14.204,5.856,21.856C910.873,749.133,905.494,752.003,899.964,752.003z"></path>
                        </g>
                        <g>
                            <path style="fill:#5064AA;" d="M647.985,292.444c-2.714,0-5.465-0.691-7.985-2.146c-7.653-4.418-10.275-14.204-5.856-21.856
					l88-152.421c4.418-7.651,14.204-10.274,21.856-5.856c7.653,4.418,10.275,14.204,5.856,21.856l-88,152.421
					C658.893,289.574,653.515,292.444,647.985,292.444z"></path>
                            <path style="fill:#5064AA;" d="M287.985,915.982c-2.714,0-5.465-0.691-7.985-2.146c-7.653-4.418-10.275-14.204-5.856-21.856
					l88-152.421c4.418-7.652,14.204-10.274,21.856-5.856s10.275,14.204,5.856,21.856l-88,152.421
					C298.893,913.112,293.515,915.982,287.985,915.982z"></path>
                        </g>
                    </g>
                </g>
            </g>
            <g id="参考线_1_"></g>
        </g>
    </g>
</svg>