<svg id="图层_1" viewBox="0 0 256 256" y="0px" style="font-size: 128px; color: rgb(11, 10, 10);" xml:space="preserve" version="1.1" width="128" xmlns="http://www.w3.org/2000/svg" xmlns:xlink="http://www.w3.org/1999/xlink" height="128" x="0px">
    <style type="text/css" style="fill: rgb(11, 10, 10);">
	.st0{display:none;opacity:0.39;fill:#EFEFEF;}
	.st1{fill:#FFBE00;}
	.st2{fill:#E30B00;}
	.st3{fill:#20B28C;}
</style>
    <g transform="matrix(1,0,0,1,4.1899999e-07,6.1400001e-07)" style="fill: rgb(11, 10, 10);">
        <g transform="matrix(0.30167334,0,0,0.30167334,-26.290832,-32.550554)" style="fill: rgb(11, 10, 10);">
            <rect y="-0.1" class="st0" width="1024.1" height="1024.1" x="-0.6" style="fill: rgb(11, 10, 10);"></rect>
            <g style="fill: rgb(11, 10, 10);">
                <path class="st1" d="M854,956.5H722c-11,0-20-9-20-20s9-20,20-20h132c15.4,0,28-12.6,28-28v-132c0-11,9-20,20-20s20,9,20,20v132
		C922,926,891.5,956.5,854,956.5z" style="fill: rgb(11, 10, 10);"></path>
                <g style="fill: rgb(11, 10, 10);">
                    <path class="st2" d="M107.4,327.9c-11,0-20-9-20-20v-132c0-37.5,30.5-68,68-68h132c11,0,20,9,20,20s-9,20-20,20h-132
			c-15.4,0-28,12.6-28,28v132C127.4,319,118.4,327.9,107.4,327.9z" style="fill: rgb(11, 10, 10);"></path>
                    <g style="fill: rgb(11, 10, 10);">
                        <path class="st3" d="M287.4,916h-132c-37.5,0-68-30.5-68-68V716c0-11,9-20,20-20s20,9,20,20v132c0,15.4,12.6,28,28,28h132
				c11,0,20,9,20,20S298.5,916,287.4,916z" style="fill: rgb(11, 10, 10);"></path>
                        <path class="st3" d="M915.5,327.9c-11,0-20-9-20-20v-132c0-15.4-12.6-28-28-28h-132c-11,0-20-9-20-20s9-20,20-20h132
				c37.5,0,68,30.5,68,68v132C935.5,319,926.5,327.9,915.5,327.9z" style="fill: rgb(11, 10, 10);"></path>
                    </g>
                </g>
                <path class="st3" d="M713.5,734h-404c-37.5,0-68-30.5-68-68v-308c0-37.5,30.5-68,68-68h404c37.5,0,68,30.5,68,68v308
		C781.5,703.5,751,734,713.5,734z M309.4,329.9c-15.4,0-28,12.6-28,28v308c0,15.4,12.6,28,28,28h404c15.4,0,28-12.6,28-28v-308
		c0-15.4-12.6-28-28-28H309.4z" style="fill: rgb(11, 10, 10);"></path>
            </g>
        </g>
    </g>
</svg>