<?xml version="1.0" standalone="no"?><!DOCTYPE svg PUBLIC "-//W3C//DTD SVG 1.1//EN" "http://www.w3.org/Graphics/SVG/1.1/DTD/svg11.dtd"><svg t="1730394709464" class="icon" viewBox="0 0 1024 1024" version="1.1" xmlns="http://www.w3.org/2000/svg" p-id="5735" xmlns:xlink="http://www.w3.org/1999/xlink" width="200" height="200"><path d="M930 445.4L514.9 79.2 93.3 448.5c-14.5 12.7-16 34.8-3.3 49.4 12.7 14.5 34.8 16 49.4 3.3l14.7-12.9v448.4H869V484.9l14.7 13c14.5 12.8 36.6 11.4 49.4-3.1 12.8-14.5 11.4-36.6-3.1-49.4zM403.7 866.7v-177c0-66.2 48.4-120 107.9-120 28.1 0 54.8 12.2 75.2 34.3 21.1 22.9 32.7 53.4 32.7 85.8v177H403.7z m395.3 0H689.4v-177c0-50-18.2-97.4-51.2-133.2-33.8-36.6-78.7-56.8-126.6-56.8-98.1 0-177.9 85.3-177.9 190v177H224.1V427l290.7-254.6L799 423.2v443.5z" p-id="5736"></path></svg>