<?xml version="1.0" standalone="no"?><!DOCTYPE svg PUBLIC "-//W3C//DTD SVG 1.1//EN" "http://www.w3.org/Graphics/SVG/1.1/DTD/svg11.dtd"><svg t="1735317897641" class="icon" viewBox="0 0 1029 1024" version="1.1" xmlns="http://www.w3.org/2000/svg" p-id="4275" width="48.234375" height="48" xmlns:xlink="http://www.w3.org/1999/xlink"><path d="M823.213438 1023.197312H205.946697c-113.178947 0-205.258679-92.079731-205.258679-205.258678V323.139082c0-93.914446 63.412318-173.380515 149.758567-197.690482v-19.493841C150.446585 47.931915 197.690482 0.688018 255.713326 0.688018h280.71131c58.022844 0 105.266741 47.243897 105.266741 105.266741v11.810974h181.7514c113.178947 0 205.258679 92.079731 205.258679 205.258679v494.684883c-0.11467 113.293617-92.194401 205.488018-205.488018 205.488017zM261.561478 111.802912v61.577603c0 30.731467-24.883315 55.500112-55.500112 55.500112-51.945353 0-94.143785 42.198432-94.143785 94.143785v494.684883c0 51.945353 42.198432 94.143785 94.143785 94.143785h617.381411c51.945353 0 94.143785-42.198432 94.143785-94.143785V323.139082c0-51.945353-42.198432-94.143785-94.143785-94.143785H585.961926c-30.731467 0-55.500112-24.883315-55.500112-55.500112V111.917581H261.561478v-0.114669z" fill="#333333" p-id="4276"></path><path d="M514.637402 841.675252c-147.006495 0-266.836282-119.600448-266.836282-266.836282 0-147.121165 119.600448-266.836282 266.836282-266.836282 147.235834 0 266.836282 119.715118 266.836282 266.836282C781.473684 722.074804 661.643897 841.675252 514.637402 841.675252z m0-422.443001C428.864502 419.232251 358.916013 488.9514 358.916013 574.83897c0 85.88757 69.719149 155.721389 155.721389 155.721388 86.00224 0 155.721389-69.719149 155.721389-155.721388 0-85.88757-69.948488-155.606719-155.721389-155.606719z" fill="#333333" p-id="4277"></path><path d="M423.475028 538.603359c0 20.067189 10.664278 38.529003 27.979395 48.505264 17.315118 9.97626 38.758343 9.97626 56.073461 0 17.315118-9.97626 27.979395-28.552744 27.979395-48.505264 0-30.960806-25.112654-56.07346-56.07346-56.07346-30.846137 0-55.958791 25.112654-55.958791 56.07346z" fill="#333333" p-id="4278"></path></svg>