<?xml version="1.0" standalone="no"?><!DOCTYPE svg PUBLIC "-//W3C//DTD SVG 1.1//EN" "http://www.w3.org/Graphics/SVG/1.1/DTD/svg11.dtd"><svg t="1730451489015" class="icon" viewBox="0 0 1024 1024" version="1.1" xmlns="http://www.w3.org/2000/svg" p-id="16861" xmlns:xlink="http://www.w3.org/1999/xlink" width="200" height="200"><path d="M853.14 924H194.86A139.02 139.02 0 0 1 56 785.14V660a32 32 0 0 1 64 0v125.14A74.94 74.94 0 0 0 194.86 860h658.28A74.94 74.94 0 0 0 928 785.14V660a32 32 0 0 1 64 0v125.14A139.02 139.02 0 0 1 853.14 924z" p-id="16862"></path><path d="M524 712a32 32 0 0 1-32-32V94a32 32 0 0 1 64 0v586a32 32 0 0 1-32 32z" p-id="16863"></path><path d="M524 712a31.88 31.88 0 0 1-20.38-7.34L220.2 470.26a32 32 0 0 1 40.78-49.32l283.42 234.4A32 32 0 0 1 524 712z" p-id="16864"></path><path d="M524 712a32 32 0 0 1-20.42-56.66l283.42-234.4a32 32 0 0 1 40.78 49.32L544.4 704.66A31.88 31.88 0 0 1 524 712z" p-id="16865"></path></svg>