<?xml version="1.0" standalone="no"?><!DOCTYPE svg PUBLIC "-//W3C//DTD SVG 1.1//EN" "http://www.w3.org/Graphics/SVG/1.1/DTD/svg11.dtd"><svg t="1730804914165" class="icon" viewBox="0 0 1024 1024" version="1.1" xmlns="http://www.w3.org/2000/svg" p-id="4279" xmlns:xlink="http://www.w3.org/1999/xlink" width="200" height="200"><path d="M509.44 935.424c-233.984 0-424.448-190.464-424.448-424.448s190.464-424.448 424.448-424.448 424.448 190.464 424.448 424.448-190.464 424.448-424.448 424.448z m0-797.696c-205.824 0-373.248 167.424-373.248 373.248s167.424 373.248 373.248 373.248 373.248-167.424 373.248-373.248-167.424-373.248-373.248-373.248z" fill="#000000" p-id="4280"></path><path d="M338.944 681.472c-10.24-10.24-10.24-26.112 0-36.352l304.128-304.128c10.24-10.24 26.112-10.24 36.352 0s10.24 26.112 0 36.352l-304.128 304.128c-9.728 9.728-26.112 9.728-36.352 0z" fill="#000000" p-id="4281"></path><path d="M679.424 681.472c-10.24 10.24-26.112 10.24-36.352 0L338.944 376.832c-10.24-10.24-10.24-26.112 0-36.352s26.112-10.24 36.352 0l304.128 304.128c10.24 10.24 10.24 26.624 0 36.864z" fill="#000000" p-id="4282"></path></svg>