<?xml version="1.0" standalone="no"?><!DOCTYPE svg PUBLIC "-//W3C//DTD SVG 1.1//EN" "http://www.w3.org/Graphics/SVG/1.1/DTD/svg11.dtd"><svg t="1731921809917" class="icon" viewBox="0 0 1024 1024" version="1.1" xmlns="http://www.w3.org/2000/svg" p-id="6467" xmlns:xlink="http://www.w3.org/1999/xlink" width="200" height="200"><path d="M970.8446276 608.32891447c0-200.61565717-153.51621978-363.75965631-343.94176713-363.75965631H233.54417277l90.04103734-96.00514844c20.65286473-21.86272726 20.65286473-56.99986182 0-78.84554878-20.66990505-21.84568695-53.88148373-21.84568695-73.80161482 0L67.46923905 262.51271241a56.4886523 56.4886523 0 0 0-15.48964856 42.15774534c-0.73273364 14.82507617 4.43048254 30.43400694 15.48964856 41.37389074L249.76655497 538.07168568c20.66990505 21.84568695 53.88148373 21.84568695 73.80161482 0a56.91466025 56.91466025 0 0 0 0-78.06169417l-89.30830368-94.45447956h392.64299436c126.9503649 0 229.53307586 108.51274143 229.53307587 242.77340252s-102.58271097 242.7563622-229.53307587 242.7563622H225.41594134c-31.72907107 0-56.82945865 27.33266917-56.82945863 60.11823992v0.74977395c0 33.60350599 25.83312123 60.11823991 56.82945863 60.11823992h402.20261246c189.70985402 0.01704031 343.22607379-162.34310422 343.2260738-363.74261599z" fill="#515151" p-id="6468"></path></svg>