<svg xmlns="http://www.w3.org/2000/svg" viewBox="0 0 256 256" height="128" xml:space="preserve" enable-background="new 0 0 1024 1024" x="0px" id="图层_1" version="1.1" xmlns:xlink="http://www.w3.org/1999/xlink" y="0px" width="128" style="font-size: 128px;">
    <g transform="matrix(0.28096,0,0,0.28096,-15.851415,-15.733995)">
        <g>
            <g>
                <path fill="#EDD971" d="M491.542,89.904c3.72-7.539,11.484-12.717,20.458-12.717c8.973,0,16.738,5.178,20.457,12.717
			l128.424,260.212l287.161,41.726c8.318,1.209,15.643,6.993,18.416,15.527c2.772,8.534,0.246,17.518-5.772,23.386L752.894,633.303
			l49.053,286.001c1.421,8.285-1.816,17.039-9.077,22.313c-7.258,5.275-16.583,5.649-24.024,1.738L512,808.321L255.155,943.354
			c-7.441,3.911-16.767,3.537-24.026-1.738c-7.259-5.273-10.497-14.027-9.076-22.313l49.054-286.001L63.314,430.756
			c-6.02-5.868-8.545-14.853-5.772-23.386c2.773-8.534,10.097-14.318,18.417-15.527l287.161-41.726L491.542,89.904z"></path>
            </g>
            <g>
                <path fill="#ECB94A" d="M966.458,407.37c-1.956-6.018-0.944-8.016-6.18-10.659c-45.59,37.786-177.672,126.724-261.765,189.899
			c-6.298,4.09-11.393,12.096-8.307,21.555c47.921,155.513,76.585,253.976,102.662,333.451c7.261-5.273,10.498-14.027,9.077-22.313
			l-49.053-286.001l207.792-202.547C966.704,424.888,969.23,415.903,966.458,407.37z"></path>
            </g>
            <path fill="#FFFFFF" d="M505.708,132.438c-2.152,5.87-4.336,11.724-6.553,17.563l-6.717,17.486l-6.867,17.417l-6.986,17.361
		l-7.094,17.312l-7.203,17.26l-7.31,17.211c-2.427,5.741-4.899,11.461-7.392,17.172l-7.461,17.141l-7.574,17.087
		c-2.509,5.704-5.069,11.383-7.643,17.056l-7.699,17.03l-7.813,16.976l-7.844,16.962l-7.953,16.911l-0.04,0.084
		c-1.635,3.478-4.916,5.671-8.469,6.099c-5.904,0.694-11.804,1.429-17.715,2.075l-17.726,1.99l-17.731,1.948l-17.74,1.872
		c-11.823,1.274-23.668,2.37-35.502,3.563l-17.767,1.655c-5.923,0.542-11.843,1.111-17.773,1.603l-17.783,1.525l-17.795,1.423
		c-5.93,0.486-11.868,0.912-17.805,1.344c-5.936,0.44-11.873,0.867-17.816,1.25c-5.941,0.4-11.882,0.798-17.83,1.143
		c-5.944,0.372-11.893,0.71-17.844,1.022c-5.949,0.332-6.542-4.509-0.688-5.623c5.851-1.134,11.705-2.242,17.563-3.315
		c5.855-1.101,11.716-2.149,17.579-3.194c5.859-1.064,11.725-2.082,17.591-3.087c5.866-1.014,11.731-2.033,17.603-2.993
		l17.613-2.914l17.625-2.811c5.873-0.955,11.755-1.831,17.635-2.735l17.641-2.683c11.771-1.698,23.532-3.494,35.313-5.111
		l17.667-2.465l17.677-2.389l17.682-2.347c5.892-0.801,11.795-1.511,17.692-2.263l-8.508,6.184l7.826-16.971l7.935-16.92
		l7.965-16.906l8.079-16.852c2.685-5.621,5.385-11.236,8.136-16.827l8.205-16.794l8.317-16.742
		c2.767-5.583,5.554-11.157,8.386-16.709l8.469-16.671l8.575-16.622l8.685-16.571l8.792-16.52l8.911-16.465l9.061-16.396
		c3.043-5.454,6.118-10.894,9.226-16.319C505.671,125.549,507.81,126.545,505.708,132.438z"></path>
        </g>
    </g>
</svg>