<?xml version="1.0" standalone="no"?><!DOCTYPE svg PUBLIC "-//W3C//DTD SVG 1.1//EN" "http://www.w3.org/Graphics/SVG/1.1/DTD/svg11.dtd"><svg t="1731921115217" class="icon" viewBox="0 0 1024 1024" version="1.1" xmlns="http://www.w3.org/2000/svg" p-id="4292" xmlns:xlink="http://www.w3.org/1999/xlink" width="200" height="200"><path d="M758.4 252.8h-220.8c-12.8 0-22.4-3.2-32-6.4-3.2 0-12.8-6.4-25.6-16-3.2-3.2-6.4-6.4-12.8-9.6l-35.2-35.2c-25.6-25.6-57.6-38.4-89.6-38.4H236.8c-96 3.2-134.4 83.2-140.8 124.8v438.4c0 92.8 76.8 169.6 169.6 169.6h492.8c92.8 0 169.6-76.8 169.6-169.6v-288c0-92.8-76.8-169.6-169.6-169.6zM864 707.2c0 57.6-48 105.6-105.6 105.6H265.6c-57.6 0-105.6-48-105.6-105.6V278.4c3.2-12.8 19.2-67.2 80-67.2h102.4c16 0 35.2 6.4 48 19.2l35.2 35.2c6.4 6.4 12.8 12.8 19.2 16 16 12.8 28.8 19.2 38.4 22.4 19.2 6.4 38.4 12.8 57.6 12.8h220.8c57.6 0 105.6 48 105.6 105.6v284.8z" p-id="4293"></path><path d="M630.4 518.4H544v-86.4c0-19.2-12.8-32-32-32s-32 12.8-32 32v86.4h-86.4c-19.2 0-32 12.8-32 32s12.8 32 32 32H480V672c0 19.2 12.8 32 32 32s32-12.8 32-32v-86.4h86.4c19.2 0 32-12.8 32-32s-12.8-35.2-32-35.2z" p-id="4294"></path></svg>