<?xml version="1.0" standalone="no"?><!DOCTYPE svg PUBLIC "-//W3C//DTD SVG 1.1//EN" "http://www.w3.org/Graphics/SVG/1.1/DTD/svg11.dtd"><svg t="1732085841144" class="icon" viewBox="0 0 1025 1024" version="1.1" xmlns="http://www.w3.org/2000/svg" p-id="3041" xmlns:xlink="http://www.w3.org/1999/xlink" width="200.1953125" height="200"><path d="M818.81 614.263c-11.25 0-20.407 9.18-20.407 20.452v286.402h-695.52v-818.212h695.498v286.38c0 11.295 9.158 20.453 20.407 20.453 11.295 0 20.497-9.135 20.497-20.453v-306.832c0.023-11.295-9.18-20.452-20.475-20.452h-736.38c-11.295 0-20.43 9.157-20.43 20.452v859.118c0 11.295 9.135 20.43 20.43 20.43h736.38c11.295 0 20.498-9.135 20.498-20.43v-306.855c0-11.273-9.202-20.453-20.498-20.453M941.525 491.57h-646.043l128.7-128.745c3.712-3.713 6.007-8.798 6.007-14.467 0-11.295-9.203-20.453-20.475-20.453-5.648 0-10.755 2.295-14.468 6.007l-163.62 163.642c-3.712 3.667-6.007 8.82-6.007 14.445s2.295 10.777 6.007 14.445l163.62 163.642c3.735 3.713 8.82 6.007 14.468 6.007 11.25 0 20.475-9.157 20.475-20.475 0-5.648-2.317-10.755-6.007-14.423l-128.7-128.79h646.043c11.34 0 20.475-9.113 20.475-20.43 0-11.273-9.135-20.409-20.475-20.409z" p-id="3042"></path></svg>